<?xml version="1.0" standalone="no"?>
<!DOCTYPE svg PUBLIC "-//W3C//DTD SVG 20010904//EN"
 "http://www.w3.org/TR/2001/REC-SVG-20010904/DTD/svg10.dtd">
<svg version="1.0" xmlns="http://www.w3.org/2000/svg"
 width="700.000000pt" height="700.000000pt" viewBox="0 0 700.000000 700.000000"
 preserveAspectRatio="xMidYMid meet">
<metadata>
Created by potrace 1.11, written by Peter Selinger 2001-2013
</metadata>
<g transform="translate(0.000000,700.000000) scale(0.100000,-0.100000)"
fill="#000000" stroke="none">
<path d="M3087 6414 c-1 -1 -42 -5 -92 -8 -129 -9 -165 -14 -305 -42 -500 -98
-965 -348 -1330 -713 -132 -132 -153 -155 -236 -266 -230 -304 -386 -634 -473
-996 -19 -80 -51 -291 -58 -379 -13 -157 -7 -420 11 -550 11 -72 19 -120 27
-165 6 -27 12 -61 15 -75 10 -52 55 -208 83 -290 279 -803 937 -1425 1756
-1661 84 -24 156 -40 340 -75 10 -2 49 -6 85 -10 36 -3 76 -7 90 -10 30 -5
362 -5 405 0 17 2 62 6 100 10 461 47 941 244 1331 547 7 5 203 -185 535 -517
288 -288 547 -542 574 -563 62 -47 109 -63 189 -63 124 0 243 94 272 217 15
61 7 131 -21 193 -23 49 -100 130 -573 604 -301 301 -546 551 -544 555 1 4 33
51 70 103 283 393 442 825 487 1325 8 82 8 336 0 410 -25 250 -54 399 -121
606 -133 413 -355 769 -673 1077 -427 416 -999 677 -1596 729 -61 5 -343 11
-348 7z m398 -598 c99 -17 275 -57 330 -74 461 -150 835 -433 1101 -834 35
-53 64 -99 64 -101 0 -2 18 -36 39 -75 77 -141 155 -362 190 -537 31 -160 35
-209 35 -415 0 -208 -12 -313 -60 -500 -206 -804 -896 -1410 -1724 -1514 -111
-14 -425 -15 -510 -1 -382 60 -682 183 -970 398 -112 83 -312 281 -392 387
-189 251 -333 569 -382 845 -3 17 -8 39 -10 51 -5 25 -17 114 -22 169 -5 54
-4 309 1 365 72 718 497 1331 1140 1645 112 55 266 115 331 130 10 2 48 11 84
20 35 9 80 18 100 21 19 3 38 8 41 10 3 2 37 6 75 9 38 4 71 9 73 11 7 7 420
-3 466 -10z"/>
</g>
</svg>
